<svg xmlns="http://www.w3.org/2000/svg" width="1440" height="900" viewBox="0 0 1440 900">
<defs>
  <linearGradient id="bg" x1="0" y1="0" x2="1" y2="1"><stop offset="0" stop-color="#101217"/><stop offset="1" stop-color="#171a21"/></linearGradient>
  <filter id="shadow" x="-20%" y="-20%" width="140%" height="140%"><feDropShadow dx="0" dy="8" stdDeviation="18" flood-color="#000" flood-opacity=".28"/></filter>
</defs>
<rect width="1440" height="900" fill="url(#bg)"/>
<rect x="24" y="24" width="1392" height="852" rx="18" fill="#181b22" stroke="#343945" filter="url(#shadow)"/>
<rect x="24" y="24" width="214" height="852" rx="18" fill="#12151b"/>
<rect x="238" y="24" width="1" height="852" fill="#343945"/>
<text x="58" y="76" fill="#f3f4f6" font-family="Inter,Arial,sans-serif" font-size="22" font-weight="700">Hermes</text>
<text x="58" y="128" fill="#8d94a3" font-family="Inter,Arial,sans-serif" font-size="13">CHATS</text>
<text x="58" y="168" fill="#aeb4c0" font-family="Inter,Arial,sans-serif" font-size="15">New chat</text>
<text x="58" y="230" fill="#8d94a3" font-family="Inter,Arial,sans-serif" font-size="13">PLUGINS</text>
<rect x="42" y="246" width="178" height="42" rx="9" fill="#2b2f39"/>
<text x="60" y="272" fill="#f3f4f6" font-family="Inter,Arial,sans-serif" font-size="15">✦  Magi</text>
<text x="274" y="76" fill="#f3f4f6" font-family="Inter,Arial,sans-serif" font-size="24" font-weight="700">Stored memory</text>
<text x="274" y="102" fill="#8d94a3" font-family="Inter,Arial,sans-serif" font-size="13">Maintain Memory and User stores with Hermes safeguards.</text>

<rect x="274" y="132" width="1110" height="62" rx="12" fill="#20242c" stroke="#343945"/>
<text x="296" y="157" fill="#9ba3b2" font-family="Inter,Arial,sans-serif" font-size="12">WORKSPACE</text>
<rect x="1084" y="145" width="132" height="34" rx="8" fill="#191c22"/><text x="1150" y="167" text-anchor="middle" fill="#9ba3b2" font-family="Inter,Arial,sans-serif" font-size="13">Pending writes</text>
<rect x="1224" y="145" width="140" height="34" rx="8" fill="#363b47"/><text x="1294" y="167" text-anchor="middle" fill="#fff" font-family="Inter,Arial,sans-serif" font-size="13">Stored memory</text>

<rect x="274" y="216" width="1110" height="88" rx="12" fill="#20242c" stroke="#343945"/>
<text x="296" y="246" fill="#fff" font-family="Inter,Arial,sans-serif" font-size="16" font-weight="700">Stored memory</text>
<text x="296" y="273" fill="#8d94a3" font-family="Inter,Arial,sans-serif" font-size="12">Inspect, edit, add, delete, or compact the built-in Hermes stores.</text>
<rect x="1112" y="236" width="100" height="38" rx="8" fill="#353b47" stroke="#596273"/><text x="1162" y="260" text-anchor="middle" fill="#fff" font-family="Inter,Arial,sans-serif" font-size="13">Memory</text>
<rect x="1222" y="236" width="76" height="38" rx="8" fill="#191c22" stroke="#343945"/><text x="1260" y="260" text-anchor="middle" fill="#9ba3b2" font-family="Inter,Arial,sans-serif" font-size="13">User</text>
<rect x="1308" y="236" width="56" height="38" rx="8" fill="#191c22" stroke="#343945"/><text x="1336" y="260" text-anchor="middle" fill="#9ba3b2" font-family="Inter,Arial,sans-serif" font-size="12">↻</text>

<rect x="274" y="328" width="258" height="82" rx="12" fill="#20242c" stroke="#343945"/><text x="296" y="352" fill="#8d94a3" font-family="Inter,Arial,sans-serif" font-size="11">ENTRIES</text><text x="296" y="388" fill="#fff" font-family="Inter,Arial,sans-serif" font-size="24" font-weight="700">12</text>
<rect x="544" y="328" width="258" height="82" rx="12" fill="#20242c" stroke="#343945"/><text x="566" y="352" fill="#8d94a3" font-family="Inter,Arial,sans-serif" font-size="11">CHARACTERS</text><text x="566" y="388" fill="#fff" font-family="Inter,Arial,sans-serif" font-size="24" font-weight="700">8,420</text>
<rect x="814" y="328" width="258" height="82" rx="12" fill="#20242c" stroke="#343945"/><text x="836" y="352" fill="#8d94a3" font-family="Inter,Arial,sans-serif" font-size="11">EST. TOKENS</text><text x="836" y="388" fill="#fff" font-family="Inter,Arial,sans-serif" font-size="24" font-weight="700">3,062</text>
<rect x="1084" y="328" width="300" height="82" rx="12" fill="#20242c" stroke="#343945"/><text x="1106" y="352" fill="#8d94a3" font-family="Inter,Arial,sans-serif" font-size="11">BUDGET USED</text><text x="1106" y="382" fill="#fff" font-family="Inter,Arial,sans-serif" font-size="18" font-weight="700">42%</text><rect x="1164" y="372" width="190" height="8" rx="4" fill="#2e333e"/><rect x="1164" y="372" width="80" height="8" rx="4" fill="#7282d6"/>

<rect x="274" y="434" width="380" height="394" rx="12" fill="#171a20" stroke="#343945"/>
<rect x="292" y="452" width="344" height="38" rx="8" fill="#20242c" stroke="#343945"/><text x="310" y="476" fill="#717987" font-family="Inter,Arial,sans-serif" font-size="13">Search memory entries…</text>
<rect x="292" y="506" width="344" height="88" rx="10" fill="#262b35" stroke="#586174"/><text x="310" y="534" fill="#fff" font-family="Inter,Arial,sans-serif" font-size="14" font-weight="600">Project preferences</text><text x="310" y="561" fill="#8d94a3" font-family="Inter,Arial,sans-serif" font-size="12">612 chars · selected</text>
<rect x="292" y="606" width="344" height="82" rx="10" fill="#1d2027" stroke="#343945"/><text x="310" y="634" fill="#d7dae0" font-family="Inter,Arial,sans-serif" font-size="14">Writing style</text><text x="310" y="660" fill="#8d94a3" font-family="Inter,Arial,sans-serif" font-size="12">488 chars</text>
<rect x="292" y="700" width="344" height="82" rx="10" fill="#1d2027" stroke="#343945"/><text x="310" y="728" fill="#d7dae0" font-family="Inter,Arial,sans-serif" font-size="14">Tooling conventions</text><text x="310" y="754" fill="#8d94a3" font-family="Inter,Arial,sans-serif" font-size="12">723 chars</text>

<rect x="670" y="434" width="714" height="394" rx="12" fill="#171a20" stroke="#343945"/>
<text x="694" y="468" fill="#fff" font-family="Inter,Arial,sans-serif" font-size="16" font-weight="700">Project preferences</text>
<text x="694" y="494" fill="#8d94a3" font-family="Inter,Arial,sans-serif" font-size="12">Edit the complete entry. Hermes validates stale state and storage limits on save.</text>
<rect x="694" y="516" width="666" height="122" rx="10" fill="#20242c" stroke="#343945"/><text x="714" y="546" fill="#e4e7eb" font-family="Inter,Arial,sans-serif" font-size="13">Prefer concise, evidence-driven implementation notes.</text><text x="714" y="574" fill="#e4e7eb" font-family="Inter,Arial,sans-serif" font-size="13">Preserve explicit validation results and avoid speculative changes.</text>
<rect x="1152" y="653" width="96" height="36" rx="8" fill="#211b1f" stroke="#5e3d45"/><text x="1200" y="676" text-anchor="middle" fill="#efb2be" font-family="Inter,Arial,sans-serif" font-size="12">Delete entry</text>
<rect x="1258" y="653" width="102" height="36" rx="8" fill="#33456c" stroke="#637bd3"/><text x="1309" y="676" text-anchor="middle" fill="#fff" font-family="Inter,Arial,sans-serif" font-size="12">Save changes</text>
<line x1="694" y1="714" x2="1360" y2="714" stroke="#343945"/>
<text x="694" y="746" fill="#fff" font-family="Inter,Arial,sans-serif" font-size="14" font-weight="600">AI compaction preview</text>
<text x="694" y="772" fill="#8d94a3" font-family="Inter,Arial,sans-serif" font-size="12">12 → 5 entries · 8,420 → 4,103 chars · 51% reduction</text>
<rect x="1202" y="742" width="158" height="38" rx="8" fill="#303746" stroke="#50617a"/><text x="1281" y="766" text-anchor="middle" fill="#eef2ff" font-family="Inter,Arial,sans-serif" font-size="12">Compact with AI</text>
<text x="1356" y="852" fill="#666d7b" font-family="Inter,Arial,sans-serif" font-size="12" text-anchor="end">Magi 1.7.3 · Hermes Desktop</text>
</svg>
